<svg width="100" height="100" viewBox="0 0 64 64" fill="none" xmlns="http://www.w3.org/2000/svg">
  <rect width="64" height="64" rx="12" fill="#000000"/>
  <path d="M32 6L12 14V28C12 42 24 52 32 56C40 52 52 42 52 28V14L32 6Z" fill="#F3F4F6"/>
  <path d="M26 30C26 26.6863 28.6863 24 32 24C35.3137 24 38 26.6863 38 30C38 33.3137 35.3137 36 32 36C28.6863 36 26 33.3137 26 30Z" fill="#000000"/>
  <path d="M32 38C28 38 22 40 22 44V46H42V44C42 40 36 38 32 38Z" fill="#000000"/>
  <circle cx="48" cy="18" r="4" fill="#10B981"/>
  <path d="M46 18L48 20L52 16" stroke="white" stroke-width="2" stroke-linecap="round"/>
</svg>
